<?xml version="1.0" encoding="utf-8"?>
<!-- Generator: Adobe Illustrator 25.0.0, SVG Export Plug-In . SVG Version: 6.00 Build 0)  -->
<svg version="1.1" id="Camada_1" xmlns="http://www.w3.org/2000/svg" xmlns:xlink="http://www.w3.org/1999/xlink" x="0px" y="0px"
	 viewBox="0 0 24 24" style="enable-background:new 0 0 24 24;" xml:space="preserve">
<style type="text/css">
	.st0{stroke:#636363;stroke-width:1.5;stroke-linecap:round;stroke-linejoin:round;}
	.st1{fill:none;stroke:#636363;stroke-width:1.5;stroke-linecap:round;stroke-linejoin:round;}
</style>
<path class="st0" d="M8.5,9C8.2,9,8,8.8,8,8.5S8.2,8,8.5,8S9,8.2,9,8.5S8.8,9,8.5,9z"/>
<path class="st0" d="M15.5,9C15.2,9,15,8.8,15,8.5S15.2,8,15.5,8S16,8.2,16,8.5S15.8,9,15.5,9z"/>
<path class="st1" d="M12,22c5.5,0,10-4.5,10-10c0-5.5-4.5-10-10-10C6.5,2,2,6.5,2,12C2,17.5,6.5,22,12,22z"/>
<path class="st1" d="M7.5,15.5c0,0,1.5-2,4.5-2s4.5,2,4.5,2"/>
</svg>
